<?xml version="1.0" encoding="utf-8"?>
<!-- Generator: Adobe Illustrator 21.0.0, SVG Export Plug-In . SVG Version: 6.00 Build 0)  -->
<svg version="1.1" id="Layer_1" xmlns="http://www.w3.org/2000/svg" xmlns:xlink="http://www.w3.org/1999/xlink" x="0px" y="0px"
	 viewBox="0 0 135.2 36" style="enable-background:new 0 0 135.2 36;" xml:space="preserve">
<style type="text/css">
	.st0{fill:#FFFFFF;}
	.st1{opacity:0.5;}
	.st2{fill:url(#SVGID_1_);}
	.st3{opacity:0.7;}
	.st4{fill:url(#SVGID_2_);}
	.st5{fill:url(#SVGID_3_);}
	.Rrrrr { font: bold 16px arial; fill: black; }
</style>
<g>
		 <text class="Rrrrr" x="40" y="25" fill="red">CMS SEED</text>
	<g>
		<path class="st0" d="M25.4,35.4H10.8c-5.6,0-10.2-4.6-10.2-10.2V10.6c0-5.6,4.6-10.2,10.2-10.2h24.8v24.8
			C35.7,30.8,31.1,35.4,25.4,35.4z"/>
	</g>
	<g class="st1">
		<linearGradient id="SVGID_1_" gradientUnits="userSpaceOnUse" x1="1.9889" y1="30.498" x2="33.3221" y2="-0.8353">
			<stop  offset="0" style="stop-color:#EF5037"/>
			<stop  offset="1" style="stop-color:#EC1A75"/>
		</linearGradient>
		<path class="st2" d="M18.1,9.1h-5.8c-1.6,0-2.9,1.3-2.9,2.9v11.7c0,1.6,1.3,2.9,2.9,2.9h5.8V9.1"/>
	</g>
	<g class="st3">
		<linearGradient id="SVGID_2_" gradientUnits="userSpaceOnUse" x1="5.5111" y1="34.0202" x2="36.5803" y2="2.951">
			<stop  offset="0" style="stop-color:#EF5037"/>
			<stop  offset="1" style="stop-color:#EC1A75"/>
		</linearGradient>
		<path class="st4" d="M26.9,17.9H9.4v5.8c0,1.6,1.3,2.9,2.9,2.9H24c1.6,0,2.9-1.3,2.9-2.9V17.9"/>
	</g>
	<g>
		<linearGradient id="SVGID_3_" gradientUnits="userSpaceOnUse" x1="7.6233" y1="36.2905" x2="38.9384" y2="4.9754">
			<stop  offset="0" style="stop-color:#EF5037"/>
			<stop  offset="1" style="stop-color:#EC1A75"/>
		</linearGradient>
		<path class="st5" d="M24,26.6h-5.8v-8.8h8.8v5.8C26.9,25.3,25.6,26.6,24,26.6z"/>
	</g>
</g>
</svg>
