<?xml version="1.0" encoding="utf-8"?>
<!-- Generator: Adobe Illustrator 21.0.0, SVG Export Plug-In . SVG Version: 6.00 Build 0)  -->
<svg version="1.1" id="Layer_1" xmlns="http://www.w3.org/2000/svg" xmlns:xlink="http://www.w3.org/1999/xlink" x="0px" y="0px"
	 viewBox="0 0 300 89.3" style="enable-background:new 0 0 300 89.3;" xml:space="preserve">
<style type="text/css">
	.st0{fill:#FFFFFF;}
	.st1{opacity:0.5;}
	.st2{fill:url(#SVGID_1_);}
	.st3{opacity:0.7;}
	.st4{fill:url(#SVGID_2_);}
	.st5{fill:url(#SVGID_3_);}
	.Rrrrr { font: bold 30px arial; fill: black; }
</style>
<g>
	 <text class="Rrrrr" x="100" y="55" fill="red">CMS SEED</text>
</g>
<g>
	<path class="st0" d="M59.7,81.4H28.4c-12.1,0-21.8-9.8-21.8-21.8V28.4c0-12.1,9.8-21.8,21.8-21.8h53.1v53.1
		C81.5,71.7,71.7,81.4,59.7,81.4z"/>
</g>
<g class="st1">
	<linearGradient id="SVGID_1_" gradientUnits="userSpaceOnUse" x1="9.5674" y1="70.953" x2="76.5131" y2="4.0074">
		<stop  offset="0" style="stop-color:#EF5037"/>
		<stop  offset="1" style="stop-color:#EC1A75"/>
	</linearGradient>
	<path class="st2" d="M44.1,25.3H31.6c-3.5,0-6.3,2.8-6.3,6.3v24.9c0,3.5,2.8,6.3,6.3,6.3h12.4V25.3"/>
</g>
<g class="st3">
	<linearGradient id="SVGID_2_" gradientUnits="userSpaceOnUse" x1="17.0929" y1="78.4785" x2="83.4743" y2="12.0971">
		<stop  offset="0" style="stop-color:#EF5037"/>
		<stop  offset="1" style="stop-color:#EC1A75"/>
	</linearGradient>
	<path class="st4" d="M62.8,44H25.3v12.4c0,3.5,2.8,6.3,6.3,6.3h24.9c3.5,0,6.3-2.8,6.3-6.3V44"/>
</g>
<g>
	<linearGradient id="SVGID_3_" gradientUnits="userSpaceOnUse" x1="21.6058" y1="83.3292" x2="88.5127" y2="16.4223">
		<stop  offset="0" style="stop-color:#EF5037"/>
		<stop  offset="1" style="stop-color:#EC1A75"/>
	</linearGradient>
	<path class="st5" d="M56.5,62.7H44.1V44h18.7v12.4C62.8,59.9,60,62.7,56.5,62.7z"/>
</g>
</svg>
