<?xml version="1.0" encoding="utf-8"?>
<!-- Generator: Adobe Illustrator 21.0.0, SVG Export Plug-In . SVG Version: 6.00 Build 0)  -->
<svg version="1.1" id="Layer_1" xmlns="http://www.w3.org/2000/svg" xmlns:xlink="http://www.w3.org/1999/xlink" x="0px" y="0px"
	 viewBox="0 0 135.2 36" style="enable-background:new 0 0 135.2 36;" xml:space="preserve">
<style type="text/css">
	.st0{fill:#FFFFFF;}
	.st1{opacity:0.5;}
	.st2{fill:url(#SVGID_1_);}
	.st3{opacity:0.7;}
	.st4{fill:url(#SVGID_2_);}
	.st5{fill:url(#SVGID_3_);}
	.Rrrrr { font: bold 16px arial; fill: black; }
</style>
<g>
		 <text class="Rrrrr" x="40" y="25" fill="red">CMS SEED</text>
</g>
<g>
	<path class="st0" d="M25.4,35.4H10.8c-5.6,0-10.2-4.6-10.2-10.2V10.6C0.6,5,5.2,0.4,10.8,0.4h24.8v24.8
		C35.7,30.8,31.1,35.4,25.4,35.4z"/>
</g>
<g class="st1">
	
		<linearGradient id="SVGID_1_" gradientUnits="userSpaceOnUse" x1="1.9705" y1="6.7964" x2="33.3037" y2="38.1297" gradientTransform="matrix(1 0 0 -1 0 37.276)">
		<stop  offset="0" style="stop-color:#11D0F7"/>
		<stop  offset="1" style="stop-color:#5B5DF1"/>
	</linearGradient>
	<path class="st2" d="M18.1,9.1h-5.8c-1.6,0-2.9,1.3-2.9,2.9v11.7c0,1.6,1.3,2.9,2.9,2.9h5.8L18.1,9.1"/>
</g>
<g class="st3">
	
		<linearGradient id="SVGID_2_" gradientUnits="userSpaceOnUse" x1="5.5205" y1="3.2465" x2="36.5896" y2="34.3156" gradientTransform="matrix(1 0 0 -1 0 37.276)">
		<stop  offset="0" style="stop-color:#11D0F7"/>
		<stop  offset="1" style="stop-color:#5B5DF1"/>
	</linearGradient>
	<path class="st4" d="M26.9,17.9H9.4v5.8c0,1.6,1.3,2.9,2.9,2.9H24c1.6,0,2.9-1.3,2.9-2.9V17.9"/>
</g>
<g>
	
		<linearGradient id="SVGID_3_" gradientUnits="userSpaceOnUse" x1="7.6164" y1="0.9924" x2="38.9315" y2="32.3075" gradientTransform="matrix(1 0 0 -1 0 37.276)">
		<stop  offset="0" style="stop-color:#11D0F7"/>
		<stop  offset="1" style="stop-color:#5B5DF1"/>
	</linearGradient>
	<path class="st5" d="M24,26.6h-5.8v-8.8H27v5.8C26.9,25.3,25.6,26.6,24,26.6z"/>
</g>
</svg>
